<svg width="127.29" height="41.851" viewBox="0 0 127.29 41.851" xmlns="http://www.w3.org/2000/svg"><g id="svgGroup" stroke-linecap="round" fill-rule="evenodd" font-size="9pt" stroke="#330055" stroke-width="0.02mm" fill="#330055" style="stroke:#330055;stroke-width:0.02mm;fill:#330055"><path d="M 35.59 26.485 A 13.811 13.811 0 0 0 36.108 26.011 A 5.526 5.526 0 0 0 37.575 27.481 A 4.821 4.821 0 0 0 39.127 28.172 A 6.212 6.212 0 0 0 40.65 28.351 A 5.416 5.416 0 0 0 42.615 27.992 A 5.946 5.946 0 0 0 44.46 26.836 A 6.876 6.876 0 0 0 45.932 24.942 A 8.554 8.554 0 0 0 46.71 22.801 A 15.692 15.692 0 0 0 48.033 22.691 A 12.867 12.867 0 0 0 48.605 22.607 A 9.753 9.753 0 0 0 48.57 23.461 A 8.522 8.522 0 0 0 48.571 23.568 Q 48.581 24.37 48.743 25.058 A 4.71 4.71 0 0 0 49.68 27.001 A 3.558 3.558 0 0 0 51.238 28.119 A 4.133 4.133 0 0 0 52.65 28.351 Q 53.46 28.351 54.285 27.916 Q 55.11 27.481 55.62 26.671 L 55.44 27.841 A 65.736 65.736 0 0 0 53.966 29.012 Q 50.537 31.823 49.14 33.856 Q 48.244 35.159 47.826 36.373 A 6.304 6.304 0 0 0 47.46 38.431 Q 47.46 39.961 48.42 40.906 A 3.16 3.16 0 0 0 49.761 41.695 A 4.038 4.038 0 0 0 50.91 41.851 A 4.157 4.157 0 0 0 53.171 41.196 Q 53.928 40.718 54.587 39.892 A 9.784 9.784 0 0 0 55.605 38.296 A 22.508 22.508 0 0 0 56.799 35.514 Q 57.345 33.988 57.809 32.153 A 56.236 56.236 0 0 0 58.59 28.531 L 60.51 27.241 A 84.621 84.621 0 0 1 60.602 27.177 Q 61.806 26.336 64.29 24.661 A 2.377 2.377 0 0 0 64.627 24.391 A 1.727 1.727 0 0 0 64.95 23.971 A 1.483 1.483 0 0 0 65.071 23.662 Q 65.117 23.494 65.14 23.293 A 3.684 3.684 0 0 0 65.147 23.213 A 10.192 10.192 0 0 0 65.22 23.341 A 9.21 9.21 0 0 0 66.278 24.798 A 9.698 9.698 0 0 0 69.27 27.046 A 12.18 12.18 0 0 0 72.436 28.083 A 16.487 16.487 0 0 0 75.48 28.351 A 20.982 20.982 0 0 0 77.064 28.289 A 25.131 25.131 0 0 0 79.845 27.916 A 20.619 20.619 0 0 0 84.111 26.619 A 8.751 8.751 0 0 0 84.136 26.838 Q 84.207 27.393 84.345 27.706 A 1.004 1.004 0 0 0 84.64 28.095 Q 84.827 28.243 85.096 28.305 A 1.923 1.923 0 0 0 85.53 28.351 Q 87.209 28.351 87.952 27.015 A 4.156 4.156 0 0 0 88.35 25.951 Q 88.8 24.121 89.52 22.471 A 22.117 22.117 0 0 1 89.886 21.674 Q 90.153 21.123 90.42 20.66 A 10.272 10.272 0 0 1 90.96 19.816 Q 91.494 19.07 91.847 18.877 A 0.474 0.474 0 0 1 92.07 18.811 A 0.436 0.436 0 0 1 92.088 18.811 Q 92.337 18.821 92.387 19.121 A 1.034 1.034 0 0 1 92.4 19.291 A 3.034 3.034 0 0 1 92.399 19.374 Q 92.378 20.115 92.01 21.901 Q 91.59 24.061 91.59 24.901 A 6.352 6.352 0 0 0 91.616 25.492 Q 91.665 26.013 91.804 26.441 A 2.852 2.852 0 0 0 92.37 27.466 Q 92.9 28.067 93.777 28.26 A 4.209 4.209 0 0 0 94.68 28.351 Q 96.54 28.351 97.995 27.331 A 13.832 13.832 0 0 0 99.242 26.34 A 4.71 4.71 0 0 0 99.69 27.001 A 3.558 3.558 0 0 0 101.248 28.119 A 4.133 4.133 0 0 0 102.66 28.351 A 4.057 4.057 0 0 0 105.594 27.103 A 6.795 6.795 0 0 0 106.59 25.831 Q 107.01 27.001 107.835 27.676 A 3.51 3.51 0 0 0 107.965 27.777 A 2.766 2.766 0 0 0 109.65 28.351 Q 110.94 28.351 112.32 27.301 A 13.496 13.496 0 0 0 113.334 26.446 A 16.226 16.226 0 0 0 114.93 24.721 A 2.025 2.025 0 0 0 114.996 24.64 A 10.646 10.646 0 0 0 115.111 24.94 Q 115.9 26.826 117.432 27.669 A 6.047 6.047 0 0 0 120.39 28.351 A 7.452 7.452 0 0 0 120.757 28.342 A 6.097 6.097 0 0 0 123.9 27.331 A 11.57 11.57 0 0 0 124.935 26.552 A 13.519 13.519 0 0 0 126.72 24.721 A 2.025 2.025 0 0 0 126.991 24.316 Q 127.29 23.73 127.29 22.861 A 3.024 3.024 0 0 0 127.277 22.576 Q 127.259 22.379 127.213 22.215 A 1.313 1.313 0 0 0 127.065 21.871 A 0.949 0.949 0 0 0 126.975 21.748 A 0.668 0.668 0 0 0 126.45 21.511 A 0.941 0.941 0 0 0 125.892 21.696 A 1.429 1.429 0 0 0 125.64 21.931 A 34.776 34.776 0 0 1 125.518 22.071 Q 124.662 23.05 123.954 23.707 A 10.71 10.71 0 0 1 123.3 24.271 Q 122.31 25.051 121.02 25.051 A 3.432 3.432 0 0 1 120.409 24.999 A 2.396 2.396 0 0 1 118.695 23.791 A 3.614 3.614 0 0 1 118.404 23.136 Q 118.103 22.253 118.006 20.854 A 21.002 21.002 0 0 1 117.96 19.411 A 30.581 30.581 0 0 1 117.963 18.981 Q 117.971 18.468 117.994 17.779 A 113.15 113.15 0 0 1 118.02 17.071 L 121.68 17.071 A 10.342 10.342 0 0 0 121.991 17.066 Q 125.07 16.973 125.07 15.001 A 2.685 2.685 0 0 0 125.066 14.841 Q 125.05 14.575 124.979 14.405 A 0.564 0.564 0 0 0 124.86 14.221 Q 124.708 14.069 124.416 14.027 A 1.73 1.73 0 0 0 124.17 14.011 L 120.81 14.011 A 14.259 14.259 0 0 0 121.882 12.96 A 10.149 10.149 0 0 0 124.71 5.911 Q 124.71 4.231 123.99 3.121 Q 123.27 2.011 122.01 2.011 A 3.525 3.525 0 0 0 121.328 2.077 Q 120.546 2.231 119.814 2.742 A 6.114 6.114 0 0 0 118.815 3.631 Q 117.928 4.599 117.195 5.963 A 17.73 17.73 0 0 0 116.28 7.981 A 25.912 25.912 0 0 0 115.542 10.2 A 31.583 31.583 0 0 0 114.72 14.011 L 113.01 14.011 Q 111.934 14.011 111.716 15.077 A 3.069 3.069 0 0 0 111.66 15.691 A 2.63 2.63 0 0 0 111.683 16.054 Q 111.71 16.244 111.767 16.397 A 0.991 0.991 0 0 0 111.975 16.741 A 0.74 0.74 0 0 0 112.133 16.864 Q 112.371 17.006 112.783 17.051 A 3.833 3.833 0 0 0 113.19 17.071 L 114.36 17.071 Q 114.27 18.421 114.27 19.741 A 19.07 19.07 0 0 0 114.348 21.565 A 0.941 0.941 0 0 0 114.102 21.696 A 1.429 1.429 0 0 0 113.85 21.931 Q 112.47 23.581 111.66 24.316 Q 111.116 24.809 110.68 24.971 A 1.151 1.151 0 0 1 110.28 25.051 A 0.912 0.912 0 0 1 110.214 25.048 A 0.718 0.718 0 0 1 109.695 24.781 A 0.86 0.86 0 0 1 109.634 24.698 Q 109.539 24.552 109.499 24.361 A 1.462 1.462 0 0 1 109.47 24.061 A 5.72 5.72 0 0 1 109.471 23.965 Q 109.494 22.591 110.16 19.261 Q 110.526 17.335 110.594 16.558 A 3.498 3.498 0 0 0 110.61 16.261 A 1.455 1.455 0 0 0 110.609 16.218 Q 110.586 15.411 109.658 15.251 A 3.049 3.049 0 0 0 109.14 15.211 A 7.792 7.792 0 0 0 108.947 15.213 A 6.934 6.934 0 0 0 107.82 15.331 A 4.902 4.902 0 0 0 107.77 15.129 Q 107.682 14.806 107.572 14.603 A 1.002 1.002 0 0 0 107.445 14.416 A 0.53 0.53 0 0 0 107.331 14.319 Q 107.157 14.209 106.854 14.176 A 2.67 2.67 0 0 0 106.56 14.161 A 6.325 6.325 0 0 0 104.7 14.438 A 7.204 7.204 0 0 0 102.645 15.466 A 9.08 9.08 0 0 0 101.665 16.266 A 9.753 9.753 0 0 0 99.69 18.916 A 9.753 9.753 0 0 0 98.581 23.273 A 20.852 20.852 0 0 1 98.053 23.83 A 11.212 11.212 0 0 1 97.545 24.316 Q 96.72 25.051 96.12 25.051 A 1.219 1.219 0 0 1 96.081 25.05 Q 95.25 25.024 95.25 23.851 Q 95.25 23.194 95.598 21.458 A 62.778 62.778 0 0 1 95.82 20.401 Q 96.32 18.082 96.441 16.848 A 7.079 7.079 0 0 0 96.48 16.171 A 2.873 2.873 0 0 0 96.397 15.448 Q 96.077 14.221 94.53 14.221 A 3.101 3.101 0 0 0 94.01 14.266 Q 93.594 14.337 93.147 14.518 A 6.221 6.221 0 0 0 92.355 14.911 Q 91.577 15.363 90.787 16.21 A 12.624 12.624 0 0 0 89.955 17.206 Q 88.74 18.811 87.75 21.361 A 60.348 60.348 0 0 1 87.75 21.309 A 55.679 55.679 0 0 1 87.84 18.151 A 63.767 63.767 0 0 0 90.219 15.414 Q 91.29 14.104 92.121 12.913 A 25.284 25.284 0 0 0 93.6 10.546 A 15.989 15.989 0 0 0 94.778 7.839 A 11.578 11.578 0 0 0 95.37 4.261 Q 95.37 3.4 95.193 2.686 A 4.307 4.307 0 0 0 94.515 1.186 Q 93.66 0.001 92.28 0.001 A 3.797 3.797 0 0 0 90.072 0.714 Q 89.416 1.17 88.823 1.916 A 10.217 10.217 0 0 0 87.855 3.406 A 20.416 20.416 0 0 0 87.327 4.452 Q 86.565 6.074 85.981 8.015 A 37.113 37.113 0 0 0 85.065 11.821 A 58.292 58.292 0 0 0 84.652 14.301 A 50.06 50.06 0 0 0 84.12 21.451 L 84.102 22.922 A 42.021 42.021 0 0 1 83.902 23.002 Q 82.957 23.381 82.081 23.676 A 25.101 25.101 0 0 1 80.115 24.256 Q 78.12 24.751 76.17 24.751 A 14.009 14.009 0 0 1 74.979 24.702 Q 71.923 24.441 70.23 22.786 A 6.039 6.039 0 0 1 69.566 22.018 Q 68.773 20.927 68.447 19.455 A 10.339 10.339 0 0 1 68.22 17.221 Q 68.22 15.576 68.472 14.147 A 12.405 12.405 0 0 1 69.33 11.266 Q 69.816 10.17 70.433 9.306 A 7.849 7.849 0 0 1 72.24 7.471 A 7.878 7.878 0 0 1 72.95 7.016 A 6.153 6.153 0 0 1 76.02 6.181 A 4.564 4.564 0 0 1 77.093 6.296 Q 78.406 6.614 78.781 7.814 A 3.681 3.681 0 0 1 78.93 8.911 A 3.481 3.481 0 0 1 78.929 8.991 Q 78.921 9.339 78.845 9.823 A 12.951 12.951 0 0 1 78.75 10.351 Q 78.63 11.071 78.63 11.341 A 1.93 1.93 0 0 0 78.668 11.734 A 1.26 1.26 0 0 0 79.11 12.481 A 1.504 1.504 0 0 0 79.377 12.654 Q 79.612 12.773 79.906 12.827 A 2.925 2.925 0 0 0 80.43 12.871 A 2.578 2.578 0 0 0 80.455 12.87 Q 81.231 12.863 81.773 12.387 A 2.488 2.488 0 0 0 82.275 11.761 Q 82.92 10.651 82.92 8.821 A 7.834 7.834 0 0 0 82.837 7.658 A 5.585 5.585 0 0 0 81.24 4.426 A 5.027 5.027 0 0 0 80.088 3.575 Q 79.257 3.124 78.193 2.923 A 10.094 10.094 0 0 0 76.32 2.761 Q 72.84 2.761 69.99 4.636 A 12.013 12.013 0 0 0 67.579 6.733 A 14.17 14.17 0 0 0 65.475 9.931 A 15.896 15.896 0 0 0 64.226 13.598 A 19.983 19.983 0 0 0 63.81 17.761 A 13.002 13.002 0 0 0 63.922 19.488 A 10.192 10.192 0 0 0 64.409 21.575 A 0.656 0.656 0 0 0 64.32 21.571 Q 64.114 21.571 63.865 21.684 A 2.162 2.162 0 0 0 63.63 21.811 A 55.373 55.373 0 0 0 61.87 23.001 A 68.687 68.687 0 0 0 59.19 24.991 A 1250.52 1250.52 0 0 1 59.336 24.057 A 1050.588 1050.588 0 0 1 59.475 23.176 Q 59.61 22.321 59.73 21.601 Q 60.242 18.529 60.417 17.339 A 26.372 26.372 0 0 0 60.48 16.891 A 1.903 1.903 0 0 0 60.484 16.859 Q 60.501 16.723 60.507 16.531 A 7.054 7.054 0 0 0 60.51 16.321 Q 60.51 15.938 60.404 15.701 A 0.638 0.638 0 0 0 60.195 15.436 A 0.825 0.825 0 0 0 60.056 15.356 Q 59.834 15.256 59.478 15.225 A 3.995 3.995 0 0 0 59.13 15.211 A 9.098 9.098 0 0 0 59.007 15.211 Q 58.333 15.221 57.81 15.331 A 4.902 4.902 0 0 0 57.76 15.129 Q 57.672 14.806 57.562 14.603 A 1.002 1.002 0 0 0 57.435 14.416 A 0.53 0.53 0 0 0 57.321 14.319 Q 57.147 14.209 56.844 14.176 A 2.67 2.67 0 0 0 56.55 14.161 A 6.325 6.325 0 0 0 54.69 14.438 A 7.204 7.204 0 0 0 52.635 15.466 A 9.08 9.08 0 0 0 51.655 16.266 A 9.753 9.753 0 0 0 49.68 18.916 A 9.753 9.753 0 0 0 49.515 19.246 A 26.882 26.882 0 0 1 49.408 19.271 Q 48.705 19.429 48.083 19.524 A 12.927 12.927 0 0 1 46.95 19.651 Q 46.71 17.341 45.315 15.766 A 4.494 4.494 0 0 0 43.391 14.466 A 5.344 5.344 0 0 0 41.64 14.191 Q 39.78 14.191 38.25 15.196 A 6.484 6.484 0 0 0 37.155 16.1 A 7.222 7.222 0 0 0 35.85 17.986 A 8.272 8.272 0 0 0 35.222 19.784 A 10.211 10.211 0 0 0 34.98 22.051 A 8.481 8.481 0 0 0 34.981 22.181 A 7.366 7.366 0 0 0 35.063 23.219 A 23.756 23.756 0 0 1 35.019 23.264 Q 34.693 23.603 34.404 23.869 A 7.823 7.823 0 0 1 33.84 24.346 A 3.43 3.43 0 0 1 33.068 24.789 A 3.621 3.621 0 0 1 31.68 25.051 A 2.18 2.18 0 0 1 31.513 25.044 A 1.59 1.59 0 0 1 30.42 24.526 Q 30.075 24.148 29.87 23.407 A 6.458 6.458 0 0 1 29.73 22.771 A 51.913 51.913 0 0 0 31.711 19.874 A 43.441 43.441 0 0 0 35.1 13.441 A 33.472 33.472 0 0 0 35.884 11.4 Q 36.455 9.746 36.753 8.249 A 15.825 15.825 0 0 0 37.08 5.161 A 15.033 15.033 0 0 0 37.08 5.136 Q 37.078 3.596 36.758 2.499 A 4.714 4.714 0 0 0 36.255 1.336 A 3.498 3.498 0 0 0 35.924 0.882 A 2.449 2.449 0 0 0 33.99 0.001 A 3.777 3.777 0 0 0 31.805 0.704 Q 31.153 1.153 30.562 1.891 A 10.169 10.169 0 0 0 29.595 3.361 A 20.831 20.831 0 0 0 29.473 3.587 Q 28.562 5.295 27.878 7.335 A 33.904 33.904 0 0 0 26.805 11.401 A 59.7 59.7 0 0 0 26.558 12.697 Q 26.215 14.61 26.041 16.343 A 33.993 33.993 0 0 0 25.86 19.741 Q 25.86 21.884 26.263 23.581 A 9.924 9.924 0 0 0 27.135 25.951 A 5.759 5.759 0 0 0 27.463 26.495 Q 28.729 28.351 31.05 28.351 A 7.027 7.027 0 0 0 31.058 28.351 A 6.007 6.007 0 0 0 34.485 27.331 A 11.679 11.679 0 0 0 35.59 26.485 Z M 25.44 9.001 Q 25.44 11.551 23.64 13.396 A 8.162 8.162 0 0 1 21.59 14.898 Q 20.223 15.62 18.39 16.051 Q 19.996 16.491 20.931 17.412 A 4.147 4.147 0 0 1 21.21 17.716 Q 22.17 18.871 22.17 20.371 Q 22.17 22.741 20.685 24.481 A 7.717 7.717 0 0 1 18.859 26.022 Q 17.775 26.693 16.35 27.166 A 17.141 17.141 0 0 1 13.632 27.812 Q 12.244 28.031 10.655 28.089 A 32.033 32.033 0 0 1 9.48 28.111 Q 7.98 28.111 7.08 28.021 Q 7.05 28.861 6.36 29.281 A 2.689 2.689 0 0 1 5.6 29.589 Q 5.26 29.673 4.862 29.694 A 5.181 5.181 0 0 1 4.59 29.701 A 3.797 3.797 0 0 1 4.078 29.669 Q 3.511 29.591 3.208 29.325 A 0.984 0.984 0 0 1 3.105 29.221 Q 2.713 28.756 2.757 27.87 A 3.893 3.893 0 0 1 2.76 27.811 Q 3.03 23.611 3.81 19.006 Q 4.59 14.401 5.79 10.111 A 1.86 1.86 0 0 1 6.018 9.593 A 1.469 1.469 0 0 1 6.63 9.061 A 2.744 2.744 0 0 1 7.206 8.866 Q 7.491 8.802 7.828 8.777 A 6.064 6.064 0 0 1 8.28 8.761 Q 10.11 8.761 10.11 9.781 A 2.38 2.38 0 0 1 10.076 10.171 Q 10.044 10.362 9.982 10.573 A 4.542 4.542 0 0 1 9.93 10.741 Q 9.186 12.974 8.441 16.723 A 101.766 101.766 0 0 0 8.37 17.086 A 81.02 81.02 0 0 0 7.571 21.945 A 68.384 68.384 0 0 0 7.26 24.721 Q 8.548 24.828 9.404 24.839 A 14.821 14.821 0 0 0 9.6 24.841 A 23.114 23.114 0 0 0 11.758 24.747 Q 13.907 24.545 15.251 23.904 A 5.361 5.361 0 0 0 15.765 23.626 A 5.203 5.203 0 0 0 16.759 22.845 A 3.223 3.223 0 0 0 17.73 20.521 A 2.679 2.679 0 0 0 16.838 18.502 A 3.762 3.762 0 0 0 16.605 18.301 A 3.459 3.459 0 0 0 15.678 17.787 Q 14.765 17.436 13.378 17.338 A 14.815 14.815 0 0 0 12.84 17.311 A 2.215 2.215 0 0 1 12.547 17.278 Q 12.213 17.216 12.037 17.048 A 0.622 0.622 0 0 1 12 17.011 A 0.802 0.802 0 0 1 11.851 16.755 Q 11.766 16.526 11.76 16.187 A 2.904 2.904 0 0 1 11.76 16.141 A 3.437 3.437 0 0 1 11.807 15.558 Q 11.862 15.234 11.985 14.972 A 1.829 1.829 0 0 1 12.12 14.731 A 1.141 1.141 0 0 1 12.646 14.311 Q 12.971 14.175 13.44 14.161 A 15.117 15.117 0 0 0 15.589 13.953 A 11.881 11.881 0 0 0 17.295 13.531 A 8.198 8.198 0 0 0 18.575 12.991 Q 19.422 12.54 20.01 11.926 Q 21 10.891 21 9.511 A 2.898 2.898 0 0 0 19.914 7.204 A 4.455 4.455 0 0 0 19.29 6.766 A 5.822 5.822 0 0 0 17.971 6.214 Q 16.637 5.824 14.693 5.77 A 23.16 23.16 0 0 0 14.04 5.761 Q 10.83 5.761 7.83 6.586 A 25.083 25.083 0 0 0 5.377 7.391 Q 3.911 7.962 2.73 8.671 Q 1.77 9.241 1.11 9.241 A 1.242 1.242 0 0 1 0.769 9.196 A 0.904 0.904 0 0 1 0.285 8.866 A 1.365 1.365 0 0 1 0.037 8.305 A 1.914 1.914 0 0 1 0 7.921 A 3.003 3.003 0 0 1 0.06 7.304 A 2.237 2.237 0 0 1 0.315 6.631 A 1.68 1.68 0 0 1 0.562 6.315 Q 0.838 6.031 1.324 5.71 A 9.907 9.907 0 0 1 1.83 5.401 A 19.796 19.796 0 0 1 4.94 3.98 A 26.176 26.176 0 0 1 7.74 3.151 Q 11.13 2.341 14.67 2.341 A 25.881 25.881 0 0 1 17.506 2.485 Q 20.534 2.82 22.393 3.93 A 7.11 7.11 0 0 1 22.77 4.171 A 6.732 6.732 0 0 1 24.344 5.637 A 5.403 5.403 0 0 1 25.44 9.001 Z M 33.33 2.971 A 0.57 0.57 0 0 0 32.962 3.136 Q 32.416 3.613 31.77 5.461 A 29.186 29.186 0 0 0 31.147 7.497 Q 30.839 8.642 30.563 9.968 A 60.237 60.237 0 0 0 30.24 11.641 A 46.903 46.903 0 0 0 29.616 16.573 A 40.4 40.4 0 0 0 29.52 18.721 A 40.118 40.118 0 0 0 32.179 13.557 A 35.07 35.07 0 0 0 32.91 11.686 Q 34.035 8.537 34.156 5.88 A 13.915 13.915 0 0 0 34.17 5.251 A 9.453 9.453 0 0 0 34.145 4.534 Q 34.059 3.409 33.675 3.094 A 0.528 0.528 0 0 0 33.33 2.971 Z M 91.65 2.971 A 0.523 0.523 0 0 0 91.337 3.093 Q 90.924 3.405 90.45 4.516 A 15.746 15.746 0 0 0 90.042 5.587 Q 89.612 6.839 89.202 8.57 A 49.47 49.47 0 0 0 89.175 8.686 Q 88.56 11.311 88.17 14.401 Q 90.03 12.211 91.245 9.631 A 15.066 15.066 0 0 0 91.985 7.763 Q 92.304 6.755 92.409 5.832 A 7.826 7.826 0 0 0 92.46 4.951 A 7.075 7.075 0 0 0 92.442 4.42 Q 92.398 3.839 92.25 3.481 Q 92.137 3.205 91.97 3.078 A 0.515 0.515 0 0 0 91.65 2.971 Z M 105.87 22.471 L 106.98 16.951 A 3.512 3.512 0 0 0 105.027 17.607 A 4.58 4.58 0 0 0 104.655 17.896 A 5.913 5.913 0 0 0 103.42 19.389 A 7.579 7.579 0 0 0 102.96 20.311 Q 102.33 21.811 102.33 23.491 A 3.699 3.699 0 0 0 102.36 23.976 Q 102.435 24.542 102.7 24.865 A 1.173 1.173 0 0 0 102.705 24.871 A 1.226 1.226 0 0 0 103.541 25.31 A 1.756 1.756 0 0 0 103.74 25.321 Q 104.264 25.321 104.75 24.829 A 3.081 3.081 0 0 0 105 24.541 A 4.007 4.007 0 0 0 105.49 23.698 Q 105.667 23.292 105.792 22.805 A 7.613 7.613 0 0 0 105.87 22.471 Z M 55.95 22.081 L 56.91 16.951 A 3.388 3.388 0 0 0 55.068 17.557 A 4.496 4.496 0 0 0 54.63 17.896 A 5.944 5.944 0 0 0 53.434 19.346 A 7.693 7.693 0 0 0 52.95 20.311 Q 52.32 21.811 52.32 23.491 A 3.699 3.699 0 0 0 52.35 23.976 Q 52.425 24.542 52.69 24.865 A 1.173 1.173 0 0 0 52.695 24.871 A 1.226 1.226 0 0 0 53.531 25.31 A 1.756 1.756 0 0 0 53.73 25.321 A 1.234 1.234 0 0 0 54.384 25.124 Q 54.725 24.914 55.05 24.481 Q 55.512 23.864 55.78 22.861 A 8.893 8.893 0 0 0 55.95 22.081 Z M 41.67 17.371 L 41.52 17.371 Q 40.32 17.371 39.525 18.526 A 3.986 3.986 0 0 0 39.003 19.644 Q 38.849 20.154 38.782 20.766 A 9.319 9.319 0 0 0 38.73 21.781 Q 38.73 23.431 39.375 24.301 A 2.654 2.654 0 0 0 39.8 24.759 A 1.659 1.659 0 0 0 40.89 25.171 A 2.126 2.126 0 0 0 42.398 24.552 A 2.918 2.918 0 0 0 42.555 24.391 Q 43.26 23.611 43.5 22.141 Q 42.57 21.511 42.075 20.491 Q 41.58 19.471 41.58 18.331 Q 41.58 17.851 41.67 17.371 Z M 120.282 5.845 A 7.049 7.049 0 0 0 120.195 6.016 Q 119.64 7.141 119.145 9.136 A 36.602 36.602 0 0 0 118.691 11.239 A 47.7 47.7 0 0 0 118.32 13.561 A 11.003 11.003 0 0 0 120.11 11.611 A 9.413 9.413 0 0 0 120.975 10.126 A 11.175 11.175 0 0 0 121.514 8.745 Q 121.86 7.636 121.86 6.661 A 7.251 7.251 0 0 0 121.841 6.104 Q 121.747 4.891 121.2 4.891 Q 120.786 4.891 120.282 5.845 Z M 51.24 38.941 Q 51.99 38.941 52.935 37.141 A 11.272 11.272 0 0 0 53.461 35.96 Q 53.969 34.639 54.455 32.674 A 53.181 53.181 0 0 0 54.75 31.411 A 28.01 28.01 0 0 0 53.432 32.61 Q 52.121 33.887 51.42 34.981 Q 50.775 35.987 50.538 36.836 A 3.481 3.481 0 0 0 50.4 37.771 Q 50.4 38.186 50.529 38.482 A 1.187 1.187 0 0 0 50.595 38.611 A 0.645 0.645 0 0 0 51.067 38.927 A 1.038 1.038 0 0 0 51.24 38.941 Z" vector-effect="non-scaling-stroke"/></g></svg>